<svg xmlns="http://www.w3.org/2000/svg" viewBox="0 0 1200 700" role="img" aria-label="Prompt Template search and repository illustration">
  <defs>
    <linearGradient id="bg" x1="0" y1="0" x2="1" y2="1">
      <stop offset="0%" stop-color="#040404"/>
      <stop offset="100%" stop-color="#141414"/>
    </linearGradient>
    <linearGradient id="accent" x1="0" y1="0" x2="1" y2="1">
      <stop offset="0%" stop-color="#f4d48c"/>
      <stop offset="100%" stop-color="#78d7ff"/>
    </linearGradient>
  </defs>
  <rect width="1200" height="700" rx="44" fill="url(#bg)"/>
  <rect x="90" y="90" width="1020" height="520" rx="36" fill="#0b0b0b" stroke="#2a2a2a"/>
  <rect x="150" y="150" width="900" height="84" rx="24" fill="#141414" stroke="#303030"/>
  <circle cx="193" cy="192" r="16" fill="none" stroke="url(#accent)" stroke-width="8"/>
  <path d="M205 205l22 22" stroke="url(#accent)" stroke-width="8" stroke-linecap="round"/>
  <rect x="240" y="176" width="620" height="34" rx="17" fill="#222"/>
  <rect x="240" y="176" width="340" height="34" rx="17" fill="#f3f3f3" opacity="0.14"/>
  <rect x="960" y="176" width="70" height="34" rx="17" fill="url(#accent)"/>
  <text x="975" y="201" fill="#111" font-size="20" font-weight="700" font-family="Arial, Helvetica, sans-serif">go</text>
  <rect x="150" y="280" width="360" height="210" rx="26" fill="#121212" stroke="#333"/>
  <rect x="540" y="280" width="510" height="210" rx="26" fill="#121212" stroke="#333"/>
  <text x="190" y="335" fill="#ffffff" font-size="30" font-weight="700" font-family="Arial, Helvetica, sans-serif">repo://prompt-template</text>
  <text x="190" y="390" fill="#9e9e9e" font-size="22" font-family="Arial, Helvetica, sans-serif">search bar</text>
  <text x="190" y="428" fill="#9e9e9e" font-size="22" font-family="Arial, Helvetica, sans-serif">repo tokens</text>
  <rect x="585" y="328" width="130" height="52" rx="16" fill="url(#accent)" opacity="0.95"/>
  <rect x="730" y="328" width="250" height="52" rx="16" fill="#202020"/>
  <rect x="585" y="402" width="395" height="28" rx="14" fill="#2a2a2a"/>
  <path d="M585 470h395" stroke="#ffffff" stroke-width="10" stroke-linecap="round" opacity="0.35"/>
  <path d="M585 490h250" stroke="#ffffff" stroke-width="10" stroke-linecap="round" opacity="0.2"/>
  <path d="M900 290l75 75" stroke="url(#accent)" stroke-width="14" stroke-linecap="round"/>
  <circle cx="945" cy="335" r="38" fill="none" stroke="url(#accent)" stroke-width="10"/>
  <path d="M920 360l-18 18" stroke="url(#accent)" stroke-width="12" stroke-linecap="round"/>
  <text x="192" y="540" fill="#f3f3f3" font-size="18" letter-spacing="5" font-family="Arial, Helvetica, sans-serif">TEMPLATE / REPO / SEARCH</text>
</svg>