<svg xmlns="http://www.w3.org/2000/svg" viewBox="0 0 1200 700" role="img" aria-label="Bitbucket Code Doctor illustration">
  <defs>
    <linearGradient id="bg" x1="0" y1="0" x2="1" y2="1">
      <stop offset="0%" stop-color="#050505"/>
      <stop offset="100%" stop-color="#111111"/>
    </linearGradient>
    <linearGradient id="gold" x1="0" y1="0" x2="1" y2="1">
      <stop offset="0%" stop-color="#f3d58b"/>
      <stop offset="100%" stop-color="#b88935"/>
    </linearGradient>
    <linearGradient id="cyan" x1="0" y1="0" x2="1" y2="1">
      <stop offset="0%" stop-color="#e9f7ff"/>
      <stop offset="100%" stop-color="#8ec9ff"/>
    </linearGradient>
  </defs>
  <rect width="1200" height="700" rx="44" fill="url(#bg)"/>
  <circle cx="210" cy="160" r="120" fill="#ffffff" opacity="0.04"/>
  <circle cx="980" cy="560" r="180" fill="#ffffff" opacity="0.03"/>
  <rect x="90" y="110" width="430" height="480" rx="34" fill="#0d0d0d" stroke="#2a2a2a"/>
  <rect x="560" y="110" width="550" height="480" rx="34" fill="#0d0d0d" stroke="#2a2a2a"/>
  <path d="M160 165h150" stroke="url(#gold)" stroke-width="14" stroke-linecap="round"/>
  <path d="M160 205h120" stroke="#4b4b4b" stroke-width="10" stroke-linecap="round"/>
  <path d="M160 250h185" stroke="#4b4b4b" stroke-width="10" stroke-linecap="round"/>
  <rect x="160" y="300" width="170" height="70" rx="18" fill="#151515" stroke="#303030"/>
  <rect x="160" y="400" width="230" height="70" rx="18" fill="#151515" stroke="#303030"/>
  <text x="215" y="349" fill="url(#cyan)" font-size="36" font-weight="700" font-family="Arial, Helvetica, sans-serif">AI</text>
  <text x="175" y="444" fill="#ffffff" font-size="26" font-weight="700" font-family="Arial, Helvetica, sans-serif">Doctor</text>
  <path d="M355 220h60" stroke="#ffffff" stroke-width="12" stroke-linecap="round" opacity="0.9"/>
  <path d="M385 190v60" stroke="#ffffff" stroke-width="12" stroke-linecap="round" opacity="0.9"/>
  <path d="M730 195h260" stroke="#4b4b4b" stroke-width="10" stroke-linecap="round"/>
  <path d="M730 240h340" stroke="#4b4b4b" stroke-width="10" stroke-linecap="round"/>
  <rect x="730" y="290" width="320" height="105" rx="24" fill="#141414" stroke="#2f2f2f"/>
  <rect x="730" y="430" width="260" height="60" rx="18" fill="#141414" stroke="#2f2f2f"/>
  <text x="760" y="357" fill="#ffffff" font-size="28" font-weight="700" font-family="Arial, Helvetica, sans-serif">code review</text>
  <path d="M843 468h100" stroke="url(#gold)" stroke-width="14" stroke-linecap="round"/>
  <circle cx="860" cy="300" r="54" fill="none" stroke="url(#gold)" stroke-width="10"/>
  <path d="M894 334l52 52" stroke="url(#gold)" stroke-width="14" stroke-linecap="round"/>
  <path d="M500 170l45 70 45-70" stroke="url(#cyan)" stroke-width="12" stroke-linecap="round" stroke-linejoin="round" fill="none" opacity="0.8"/>
  <path d="M497 540h210" stroke="#ffffff" stroke-width="16" stroke-linecap="round" opacity="0.75"/>
</svg>