<svg xmlns="http://www.w3.org/2000/svg" viewBox="0 0 1200 700" role="img" aria-label="FoodMark Spotify style food illustration">
  <defs>
    <linearGradient id="bg" x1="0" y1="0" x2="1" y2="1">
      <stop offset="0%" stop-color="#040404"/>
      <stop offset="100%" stop-color="#161616"/>
    </linearGradient>
    <linearGradient id="accent" x1="0" y1="0" x2="1" y2="1">
      <stop offset="0%" stop-color="#f4d48c"/>
      <stop offset="100%" stop-color="#9edbff"/>
    </linearGradient>
  </defs>
  <rect width="1200" height="700" rx="44" fill="url(#bg)"/>
  <circle cx="250" cy="205" r="130" fill="#ffffff" opacity="0.03"/>
  <circle cx="980" cy="500" r="170" fill="#ffffff" opacity="0.03"/>
  <circle cx="365" cy="350" r="170" fill="none" stroke="url(#accent)" stroke-width="16" opacity="0.8"/>
  <circle cx="365" cy="350" r="100" fill="none" stroke="#ffffff" stroke-width="10" opacity="0.5"/>
  <path d="M560 170l90 120" stroke="url(#accent)" stroke-width="16" stroke-linecap="round"/>
  <path d="M650 170l-90 120" stroke="url(#accent)" stroke-width="16" stroke-linecap="round"/>
  <path d="M262 510h210" stroke="#ffffff" stroke-width="14" stroke-linecap="round" opacity="0.75"/>
  <path d="M328 470h78" stroke="#ffffff" stroke-width="14" stroke-linecap="round" opacity="0.75"/>
  <path d="M560 460c0-55 50-100 112-100 54 0 98 34 108 82 10 48-17 102-72 123-68 26-148-1-148-105z" fill="#1a1a1a" stroke="#3a3a3a" stroke-width="8"/>
  <path d="M618 470c32 0 60-18 60-45 0-24-16-43-38-52" fill="none" stroke="url(#accent)" stroke-width="14" stroke-linecap="round"/>
  <path d="M645 512c0 24 17 45 42 45 36 0 54-28 54-56 0-29-18-51-44-56" fill="none" stroke="#ffffff" stroke-width="12" stroke-linecap="round" opacity="0.7"/>
  <text x="780" y="270" fill="#ffffff" font-size="44" font-weight="800" font-family="Arial, Helvetica, sans-serif">FoodMark</text>
  <text x="780" y="320" fill="#bfbfbf" font-size="22" font-family="Arial, Helvetica, sans-serif">food + music vibe</text>
  <path d="M770 420h300" stroke="url(#accent)" stroke-width="14" stroke-linecap="round" opacity="0.9"/>
  <path d="M820 360h170" stroke="#ffffff" stroke-width="10" stroke-linecap="round" opacity="0.35"/>
  <path d="M850 560c0-30 25-54 55-54s55 24 55 54" fill="none" stroke="url(#accent)" stroke-width="12" stroke-linecap="round"/>
  <circle cx="905" cy="560" r="28" fill="#ffffff" opacity="0.08"/>
</svg>