<svg xmlns="http://www.w3.org/2000/svg" viewBox="0 0 1200 700" role="img" aria-label="Njia ya Afya offline health triage app illustration">
  <defs>
    <linearGradient id="bg" x1="0" y1="0" x2="1" y2="1">
      <stop offset="0%" stop-color="#040404"/>
      <stop offset="100%" stop-color="#161616"/>
    </linearGradient>
    <linearGradient id="accent" x1="0" y1="0" x2="1" y2="1">
      <stop offset="0%" stop-color="#f4d48c"/>
      <stop offset="100%" stop-color="#9ef0c4"/>
    </linearGradient>
  </defs>
  <rect width="1200" height="700" rx="44" fill="url(#bg)"/>
  <circle cx="230" cy="190" r="130" fill="#ffffff" opacity="0.03"/>
  <circle cx="1000" cy="520" r="170" fill="#ffffff" opacity="0.03"/>
  <rect x="250" y="110" width="250" height="480" rx="36" fill="#1a1a1a" stroke="#3a3a3a" stroke-width="8"/>
  <rect x="340" y="132" width="70" height="10" rx="5" fill="#ffffff" opacity="0.3"/>
  <path d="M375 200v90M330 245h90" stroke="url(#accent)" stroke-width="22" stroke-linecap="round"/>
  <rect x="305" y="335" width="140" height="140" rx="12" fill="none" stroke="#ffffff" stroke-width="8" opacity="0.7"/>
  <rect x="325" y="355" width="36" height="36" fill="url(#accent)"/>
  <rect x="389" y="355" width="36" height="36" fill="url(#accent)"/>
  <rect x="325" y="419" width="36" height="36" fill="url(#accent)"/>
  <rect x="395" y="425" width="18" height="18" fill="#ffffff" opacity="0.7"/>
  <rect x="370" y="400" width="14" height="14" fill="#ffffff" opacity="0.7"/>
  <path d="M310 530h130" stroke="#ffffff" stroke-width="10" stroke-linecap="round" opacity="0.4"/>
  <path d="M540 350h60l25-60 40 120 30-90 20 30h60" fill="none" stroke="url(#accent)" stroke-width="12" stroke-linecap="round" stroke-linejoin="round"/>
  <text x="780" y="270" fill="#ffffff" font-size="44" font-weight="800" font-family="Arial, Helvetica, sans-serif">Njia ya Afya</text>
  <text x="780" y="320" fill="#bfbfbf" font-size="22" font-family="Arial, Helvetica, sans-serif">offline-first path to health</text>
  <path d="M770 420h300" stroke="url(#accent)" stroke-width="14" stroke-linecap="round" opacity="0.9"/>
  <path d="M820 470h170" stroke="#ffffff" stroke-width="10" stroke-linecap="round" opacity="0.35"/>
</svg>
